<?xml version="1.0" encoding="UTF-8" standalone="no"?>
<!DOCTYPE svg PUBLIC "-//W3C//DTD SVG 1.1//EN"
 "http://www.w3.org/Graphics/SVG/1.1/DTD/svg11.dtd">
<!-- Generated by graphviz version 2.40.1 (20161225.0304)
 -->
<!-- Title: snakemake_dag Pages: 1 -->
<svg width="236pt" height="360pt"
 viewBox="0.00 0.00 236.00 360.00" xmlns="http://www.w3.org/2000/svg" xmlns:xlink="http://www.w3.org/1999/xlink">
<g id="graph0" class="graph" transform="scale(1 1) rotate(0) translate(4 356)">
<title>snakemake_dag</title>
<polygon fill="#ffffff" stroke="transparent" points="-4,4 -4,-356 232,-356 232,4 -4,4"/>
<!-- 0 -->
<g id="node1" class="node">
<title>0</title>
<path fill="none" stroke="#d88d56" stroke-width="2" stroke-dasharray="5,2" d="M125,-36C125,-36 95,-36 95,-36 89,-36 83,-30 83,-24 83,-24 83,-12 83,-12 83,-6 89,0 95,0 95,0 125,0 125,0 131,0 137,-6 137,-12 137,-12 137,-24 137,-24 137,-30 131,-36 125,-36"/>
<text text-anchor="middle" x="110" y="-15" font-family="sans" font-size="10.00" fill="#000000">all</text>
</g>
<!-- 1 -->
<g id="node2" class="node">
<title>1</title>
<path fill="none" stroke="#70d856" stroke-width="2" stroke-dasharray="5,2" d="M79.5,-108C79.5,-108 24.5,-108 24.5,-108 18.5,-108 12.5,-102 12.5,-96 12.5,-96 12.5,-84 12.5,-84 12.5,-78 18.5,-72 24.5,-72 24.5,-72 79.5,-72 79.5,-72 85.5,-72 91.5,-78 91.5,-84 91.5,-84 91.5,-96 91.5,-96 91.5,-102 85.5,-108 79.5,-108"/>
<text text-anchor="middle" x="52" y="-87" font-family="sans" font-size="10.00" fill="#000000">bam_to_bed</text>
</g>
<!-- 1&#45;&gt;0 -->
<g id="edge1" class="edge">
<title>1&#45;&gt;0</title>
<path fill="none" stroke="#c0c0c0" stroke-width="2" d="M66.6358,-71.8314C73.3161,-63.5386 81.3568,-53.557 88.6904,-44.4533"/>
<polygon fill="#c0c0c0" stroke="#c0c0c0" stroke-width="2" points="91.6194,-46.3965 95.1671,-36.4133 86.1681,-42.0052 91.6194,-46.3965"/>
</g>
<!-- 2 -->
<g id="node3" class="node">
<title>2</title>
<path fill="none" stroke="#5692d8" stroke-width="2" stroke-dasharray="5,2" d="M138.5,-180C138.5,-180 81.5,-180 81.5,-180 75.5,-180 69.5,-174 69.5,-168 69.5,-168 69.5,-156 69.5,-156 69.5,-150 75.5,-144 81.5,-144 81.5,-144 138.5,-144 138.5,-144 144.5,-144 150.5,-150 150.5,-156 150.5,-156 150.5,-168 150.5,-168 150.5,-174 144.5,-180 138.5,-180"/>
<text text-anchor="middle" x="110" y="-159" font-family="sans" font-size="10.00" fill="#000000">sam_to_bam</text>
</g>
<!-- 2&#45;&gt;1 -->
<g id="edge3" class="edge">
<title>2&#45;&gt;1</title>
<path fill="none" stroke="#c0c0c0" stroke-width="2" d="M95.3642,-143.8314C88.6839,-135.5386 80.6432,-125.557 73.3096,-116.4533"/>
<polygon fill="#c0c0c0" stroke="#c0c0c0" stroke-width="2" points="75.8319,-114.0052 66.8329,-108.4133 70.3806,-118.3965 75.8319,-114.0052"/>
</g>
<!-- 5 -->
<g id="node6" class="node">
<title>5</title>
<path fill="none" stroke="#56d8a9" stroke-width="2" stroke-dasharray="5,2" d="M216,-108C216,-108 122,-108 122,-108 116,-108 110,-102 110,-96 110,-96 110,-84 110,-84 110,-78 116,-72 122,-72 122,-72 216,-72 216,-72 222,-72 228,-78 228,-84 228,-84 228,-96 228,-96 228,-102 222,-108 216,-108"/>
<text text-anchor="middle" x="169" y="-87" font-family="sans" font-size="10.00" fill="#000000">count_unique_reads</text>
</g>
<!-- 2&#45;&gt;5 -->
<g id="edge6" class="edge">
<title>2&#45;&gt;5</title>
<path fill="none" stroke="#c0c0c0" stroke-width="2" d="M124.8882,-143.8314C131.753,-135.454 140.0301,-125.3531 147.5511,-116.1749"/>
<polygon fill="#c0c0c0" stroke="#c0c0c0" stroke-width="2" points="150.2803,-118.3665 153.9114,-108.4133 144.8659,-113.9297 150.2803,-118.3665"/>
</g>
<!-- 3 -->
<g id="node4" class="node">
<title>3</title>
<path fill="none" stroke="#d8cb56" stroke-width="2" stroke-dasharray="5,2" d="M143.5,-260C143.5,-260 76.5,-260 76.5,-260 70.5,-260 64.5,-254 64.5,-248 64.5,-248 64.5,-228 64.5,-228 64.5,-222 70.5,-216 76.5,-216 76.5,-216 143.5,-216 143.5,-216 149.5,-216 155.5,-222 155.5,-228 155.5,-228 155.5,-248 155.5,-248 155.5,-254 149.5,-260 143.5,-260"/>
<text text-anchor="middle" x="110" y="-247" font-family="sans" font-size="10.00" fill="#000000">align_paired</text>
<text text-anchor="middle" x="110" y="-235" font-family="sans" font-size="10.00" fill="#000000">genome: hg38</text>
<text text-anchor="middle" x="110" y="-223" font-family="sans" font-size="10.00" fill="#000000">mode: paired</text>
</g>
<!-- 3&#45;&gt;2 -->
<g id="edge4" class="edge">
<title>3&#45;&gt;2</title>
<path fill="none" stroke="#c0c0c0" stroke-width="2" d="M110,-215.6086C110,-207.7272 110,-198.7616 110,-190.4482"/>
<polygon fill="#c0c0c0" stroke="#c0c0c0" stroke-width="2" points="113.5001,-190.3974 110,-180.3975 106.5001,-190.3975 113.5001,-190.3974"/>
</g>
<!-- 4 -->
<g id="node5" class="node">
<title>4</title>
<path fill="none" stroke="#56d873" stroke-width="2" stroke-dasharray="5,2" d="M208,-352C208,-352 12,-352 12,-352 6,-352 0,-346 0,-340 0,-340 0,-308 0,-308 0,-302 6,-296 12,-296 12,-296 208,-296 208,-296 214,-296 220,-302 220,-308 220,-308 220,-340 220,-340 220,-346 214,-352 208,-352"/>
<text text-anchor="middle" x="110" y="-339" font-family="sans" font-size="10.00" fill="#000000">trim_reads_paired</text>
<text text-anchor="middle" x="110" y="-327" font-family="sans" font-size="10.00" fill="#000000">length: 50</text>
<text text-anchor="middle" x="110" y="-315" font-family="sans" font-size="10.00" fill="#000000">run_name: run5</text>
<text text-anchor="middle" x="110" y="-303" font-family="sans" font-size="10.00" fill="#000000">sample: H3K27me3_iPSC_SRA60_subset</text>
</g>
<!-- 4&#45;&gt;3 -->
<g id="edge5" class="edge">
<title>4&#45;&gt;3</title>
<path fill="none" stroke="#c0c0c0" stroke-width="2" d="M110,-295.8404C110,-287.7116 110,-278.7764 110,-270.4113"/>
<polygon fill="#c0c0c0" stroke="#c0c0c0" stroke-width="2" points="113.5001,-270.224 110,-260.224 106.5001,-270.224 113.5001,-270.224"/>
</g>
<!-- 5&#45;&gt;0 -->
<g id="edge2" class="edge">
<title>5&#45;&gt;0</title>
<path fill="none" stroke="#c0c0c0" stroke-width="2" d="M154.1118,-71.8314C147.247,-63.454 138.9699,-53.3531 131.4489,-44.1749"/>
<polygon fill="#c0c0c0" stroke="#c0c0c0" stroke-width="2" points="134.1341,-41.9297 125.0886,-36.4133 128.7197,-46.3665 134.1341,-41.9297"/>
</g>
</g>
</svg>
