<?xml version="1.0" encoding="UTF-8" standalone="no"?>
<!DOCTYPE svg PUBLIC "-//W3C//DTD SVG 1.1//EN"
 "http://www.w3.org/Graphics/SVG/1.1/DTD/svg11.dtd">
<!-- Generated by graphviz version 2.40.1 (20161225.0304)
 -->
<!-- Title: snakemake_dag Pages: 1 -->
<svg width="247pt" height="432pt"
 viewBox="0.00 0.00 247.00 432.00" xmlns="http://www.w3.org/2000/svg" xmlns:xlink="http://www.w3.org/1999/xlink">
<g id="graph0" class="graph" transform="scale(1 1) rotate(0) translate(4 428)">
<title>snakemake_dag</title>
<polygon fill="#ffffff" stroke="transparent" points="-4,4 -4,-428 243,-428 243,4 -4,4"/>
<!-- 0 -->
<g id="node1" class="node">
<title>0</title>
<path fill="none" stroke="#afd856" stroke-width="2" stroke-dasharray="5,2" d="M91,-36C91,-36 61,-36 61,-36 55,-36 49,-30 49,-24 49,-24 49,-12 49,-12 49,-6 55,0 61,0 61,0 91,0 91,0 97,0 103,-6 103,-12 103,-12 103,-24 103,-24 103,-30 97,-36 91,-36"/>
<text text-anchor="middle" x="76" y="-15" font-family="sans" font-size="10.00" fill="#000000">all</text>
</g>
<!-- 1 -->
<g id="node2" class="node">
<title>1</title>
<path fill="none" stroke="#d8cb56" stroke-width="2" stroke-dasharray="5,2" d="M103.5,-180C103.5,-180 48.5,-180 48.5,-180 42.5,-180 36.5,-174 36.5,-168 36.5,-168 36.5,-156 36.5,-156 36.5,-150 42.5,-144 48.5,-144 48.5,-144 103.5,-144 103.5,-144 109.5,-144 115.5,-150 115.5,-156 115.5,-156 115.5,-168 115.5,-168 115.5,-174 109.5,-180 103.5,-180"/>
<text text-anchor="middle" x="76" y="-159" font-family="sans" font-size="10.00" fill="#000000">bam_to_bed</text>
</g>
<!-- 1&#45;&gt;0 -->
<g id="edge1" class="edge">
<title>1&#45;&gt;0</title>
<path fill="none" stroke="#c0c0c0" stroke-width="2" d="M60.0095,-143.9169C52.3462,-134.0371 43.9834,-121.1563 40,-108 35.3635,-92.6865 35.3635,-87.3135 40,-72 42.9564,-62.2355 48.3252,-52.6229 54.03,-44.2762"/>
<polygon fill="#c0c0c0" stroke="#c0c0c0" stroke-width="2" points="56.9414,-46.2239 60.0095,-36.0831 51.2871,-42.0973 56.9414,-46.2239"/>
</g>
<!-- 6 -->
<g id="node7" class="node">
<title>6</title>
<path fill="none" stroke="#5692d8" stroke-width="2" stroke-dasharray="5,2" d="M91,-108C91,-108 61,-108 61,-108 55,-108 49,-102 49,-96 49,-96 49,-84 49,-84 49,-78 55,-72 61,-72 61,-72 91,-72 91,-72 97,-72 103,-78 103,-84 103,-84 103,-96 103,-96 103,-102 97,-108 91,-108"/>
<text text-anchor="middle" x="76" y="-87" font-family="sans" font-size="10.00" fill="#000000">liftover</text>
</g>
<!-- 1&#45;&gt;6 -->
<g id="edge8" class="edge">
<title>1&#45;&gt;6</title>
<path fill="none" stroke="#c0c0c0" stroke-width="2" d="M76,-143.8314C76,-136.131 76,-126.9743 76,-118.4166"/>
<polygon fill="#c0c0c0" stroke="#c0c0c0" stroke-width="2" points="79.5001,-118.4132 76,-108.4133 72.5001,-118.4133 79.5001,-118.4132"/>
</g>
<!-- 2 -->
<g id="node3" class="node">
<title>2</title>
<path fill="none" stroke="#70d856" stroke-width="2" stroke-dasharray="5,2" d="M138.5,-252C138.5,-252 81.5,-252 81.5,-252 75.5,-252 69.5,-246 69.5,-240 69.5,-240 69.5,-228 69.5,-228 69.5,-222 75.5,-216 81.5,-216 81.5,-216 138.5,-216 138.5,-216 144.5,-216 150.5,-222 150.5,-228 150.5,-228 150.5,-240 150.5,-240 150.5,-246 144.5,-252 138.5,-252"/>
<text text-anchor="middle" x="110" y="-231" font-family="sans" font-size="10.00" fill="#000000">sam_to_bam</text>
</g>
<!-- 2&#45;&gt;1 -->
<g id="edge4" class="edge">
<title>2&#45;&gt;1</title>
<path fill="none" stroke="#c0c0c0" stroke-width="2" d="M101.4204,-215.8314C97.6642,-207.8771 93.1743,-198.369 89.0202,-189.5723"/>
<polygon fill="#c0c0c0" stroke="#c0c0c0" stroke-width="2" points="92.1301,-187.9612 84.6952,-180.4133 85.8004,-190.9503 92.1301,-187.9612"/>
</g>
<!-- 5 -->
<g id="node6" class="node">
<title>5</title>
<path fill="none" stroke="#56c9d8" stroke-width="2" stroke-dasharray="5,2" d="M227,-108C227,-108 133,-108 133,-108 127,-108 121,-102 121,-96 121,-96 121,-84 121,-84 121,-78 127,-72 133,-72 133,-72 227,-72 227,-72 233,-72 239,-78 239,-84 239,-84 239,-96 239,-96 239,-102 233,-108 227,-108"/>
<text text-anchor="middle" x="180" y="-87" font-family="sans" font-size="10.00" fill="#000000">count_unique_reads</text>
</g>
<!-- 2&#45;&gt;5 -->
<g id="edge7" class="edge">
<title>2&#45;&gt;5</title>
<path fill="none" stroke="#c0c0c0" stroke-width="2" d="M118.8655,-215.7623C130.9628,-190.8764 152.7378,-146.0822 166.7698,-117.2165"/>
<polygon fill="#c0c0c0" stroke="#c0c0c0" stroke-width="2" points="169.9822,-118.6135 171.2064,-108.0896 163.6867,-115.5531 169.9822,-118.6135"/>
</g>
<!-- 3 -->
<g id="node4" class="node">
<title>3</title>
<path fill="none" stroke="#d88d56" stroke-width="2" stroke-dasharray="5,2" d="M143.5,-332C143.5,-332 76.5,-332 76.5,-332 70.5,-332 64.5,-326 64.5,-320 64.5,-320 64.5,-300 64.5,-300 64.5,-294 70.5,-288 76.5,-288 76.5,-288 143.5,-288 143.5,-288 149.5,-288 155.5,-294 155.5,-300 155.5,-300 155.5,-320 155.5,-320 155.5,-326 149.5,-332 143.5,-332"/>
<text text-anchor="middle" x="110" y="-319" font-family="sans" font-size="10.00" fill="#000000">align_single</text>
<text text-anchor="middle" x="110" y="-307" font-family="sans" font-size="10.00" fill="#000000">genome: hg19</text>
<text text-anchor="middle" x="110" y="-295" font-family="sans" font-size="10.00" fill="#000000">mode: single</text>
</g>
<!-- 3&#45;&gt;2 -->
<g id="edge5" class="edge">
<title>3&#45;&gt;2</title>
<path fill="none" stroke="#c0c0c0" stroke-width="2" d="M110,-287.6086C110,-279.7272 110,-270.7616 110,-262.4482"/>
<polygon fill="#c0c0c0" stroke="#c0c0c0" stroke-width="2" points="113.5001,-262.3974 110,-252.3975 106.5001,-262.3975 113.5001,-262.3974"/>
</g>
<!-- 4 -->
<g id="node5" class="node">
<title>4</title>
<path fill="none" stroke="#56d873" stroke-width="2" stroke-dasharray="5,2" d="M208,-424C208,-424 12,-424 12,-424 6,-424 0,-418 0,-412 0,-412 0,-380 0,-380 0,-374 6,-368 12,-368 12,-368 208,-368 208,-368 214,-368 220,-374 220,-380 220,-380 220,-412 220,-412 220,-418 214,-424 208,-424"/>
<text text-anchor="middle" x="110" y="-411" font-family="sans" font-size="10.00" fill="#000000">trim_reads_single</text>
<text text-anchor="middle" x="110" y="-399" font-family="sans" font-size="10.00" fill="#000000">length: 50</text>
<text text-anchor="middle" x="110" y="-387" font-family="sans" font-size="10.00" fill="#000000">run_name: run4</text>
<text text-anchor="middle" x="110" y="-375" font-family="sans" font-size="10.00" fill="#000000">sample: H3K27me3_iPSC_SRA60_subset</text>
</g>
<!-- 4&#45;&gt;3 -->
<g id="edge6" class="edge">
<title>4&#45;&gt;3</title>
<path fill="none" stroke="#c0c0c0" stroke-width="2" d="M110,-367.8404C110,-359.7116 110,-350.7764 110,-342.4113"/>
<polygon fill="#c0c0c0" stroke="#c0c0c0" stroke-width="2" points="113.5001,-342.224 110,-332.224 106.5001,-342.224 113.5001,-342.224"/>
</g>
<!-- 5&#45;&gt;0 -->
<g id="edge2" class="edge">
<title>5&#45;&gt;0</title>
<path fill="none" stroke="#c0c0c0" stroke-width="2" d="M153.7564,-71.8314C140.7005,-62.7927 124.7465,-51.7476 110.6953,-42.0198"/>
<polygon fill="#c0c0c0" stroke="#c0c0c0" stroke-width="2" points="112.4494,-38.9773 102.2352,-36.1628 108.4649,-44.7326 112.4494,-38.9773"/>
</g>
<!-- 6&#45;&gt;0 -->
<g id="edge3" class="edge">
<title>6&#45;&gt;0</title>
<path fill="none" stroke="#c0c0c0" stroke-width="2" d="M76,-71.8314C76,-64.131 76,-54.9743 76,-46.4166"/>
<polygon fill="#c0c0c0" stroke="#c0c0c0" stroke-width="2" points="79.5001,-46.4132 76,-36.4133 72.5001,-46.4133 79.5001,-46.4132"/>
</g>
</g>
</svg>
