<?xml version="1.0" encoding="UTF-8" standalone="no"?>
<!DOCTYPE svg PUBLIC "-//W3C//DTD SVG 1.1//EN"
 "http://www.w3.org/Graphics/SVG/1.1/DTD/svg11.dtd">
<!-- Generated by graphviz version 2.40.1 (20161225.0304)
 -->
<!-- Title: snakemake_dag Pages: 1 -->
<svg width="378pt" height="332pt"
 viewBox="0.00 0.00 377.50 332.00" xmlns="http://www.w3.org/2000/svg" xmlns:xlink="http://www.w3.org/1999/xlink">
<g id="graph0" class="graph" transform="scale(1 1) rotate(0) translate(4 328)">
<title>snakemake_dag</title>
<polygon fill="#ffffff" stroke="transparent" points="-4,4 -4,-328 373.5,-328 373.5,4 -4,4"/>
<!-- 0 -->
<g id="node1" class="node">
<title>0</title>
<path fill="none" stroke="#59d856" stroke-width="2" d="M239,-36C239,-36 209,-36 209,-36 203,-36 197,-30 197,-24 197,-24 197,-12 197,-12 197,-6 203,0 209,0 209,0 239,0 239,0 245,0 251,-6 251,-12 251,-12 251,-24 251,-24 251,-30 245,-36 239,-36"/>
<text text-anchor="middle" x="224" y="-15" font-family="sans" font-size="10.00" fill="#000000">all</text>
</g>
<!-- 1 -->
<g id="node2" class="node">
<title>1</title>
<path fill="none" stroke="#56a9d8" stroke-width="2" d="M146,-108C146,-108 12,-108 12,-108 6,-108 0,-102 0,-96 0,-96 0,-84 0,-84 0,-78 6,-72 12,-72 12,-72 146,-72 146,-72 152,-72 158,-78 158,-84 158,-84 158,-96 158,-96 158,-102 152,-108 146,-108"/>
<text text-anchor="middle" x="79" y="-93" font-family="sans" font-size="10.00" fill="#000000">fastqc</text>
<text text-anchor="middle" x="79" y="-81" font-family="sans" font-size="10.00" fill="#000000">sample: subset_SRR099957</text>
</g>
<!-- 1&#45;&gt;0 -->
<g id="edge1" class="edge">
<title>1&#45;&gt;0</title>
<path fill="none" stroke="#c0c0c0" stroke-width="2" d="M115.5896,-71.8314C137.6125,-60.8959 165.5497,-47.0236 187.5479,-36.1004"/>
<polygon fill="#c0c0c0" stroke="#c0c0c0" stroke-width="2" points="189.1775,-39.199 196.5775,-31.6167 186.0643,-32.9294 189.1775,-39.199"/>
</g>
<!-- 2 -->
<g id="node3" class="node">
<title>2</title>
<path fill="none" stroke="#56d8a9" stroke-width="2" d="M289,-324C289,-324 155,-324 155,-324 149,-324 143,-318 143,-312 143,-312 143,-300 143,-300 143,-294 149,-288 155,-288 155,-288 289,-288 289,-288 295,-288 301,-294 301,-300 301,-300 301,-312 301,-312 301,-318 295,-324 289,-324"/>
<text text-anchor="middle" x="222" y="-309" font-family="sans" font-size="10.00" fill="#000000">align</text>
<text text-anchor="middle" x="222" y="-297" font-family="sans" font-size="10.00" fill="#000000">sample: subset_SRR099957</text>
</g>
<!-- 2&#45;&gt;0 -->
<g id="edge2" class="edge">
<title>2&#45;&gt;0</title>
<path fill="none" stroke="#c0c0c0" stroke-width="2" d="M221.2807,-287.7873C219.8492,-248.4048 217.0268,-152.3855 220,-72 220.3044,-63.7697 220.8689,-54.8483 221.4799,-46.6727"/>
<polygon fill="#c0c0c0" stroke="#c0c0c0" stroke-width="2" points="224.987,-46.7219 222.2918,-36.4756 218.009,-46.1662 224.987,-46.7219"/>
</g>
<!-- 3 -->
<g id="node4" class="node">
<title>3</title>
<path fill="none" stroke="#d85656" stroke-width="2" d="M310.5,-252C310.5,-252 247.5,-252 247.5,-252 241.5,-252 235.5,-246 235.5,-240 235.5,-240 235.5,-228 235.5,-228 235.5,-222 241.5,-216 247.5,-216 247.5,-216 310.5,-216 310.5,-216 316.5,-216 322.5,-222 322.5,-228 322.5,-228 322.5,-240 322.5,-240 322.5,-246 316.5,-252 310.5,-252"/>
<text text-anchor="middle" x="279" y="-231" font-family="sans" font-size="10.00" fill="#000000">samtools_sort</text>
</g>
<!-- 2&#45;&gt;3 -->
<g id="edge6" class="edge">
<title>2&#45;&gt;3</title>
<path fill="none" stroke="#c0c0c0" stroke-width="2" d="M236.3835,-287.8314C242.9486,-279.5386 250.8507,-269.557 258.0578,-260.4533"/>
<polygon fill="#c0c0c0" stroke="#c0c0c0" stroke-width="2" points="260.9599,-262.4262 264.4228,-252.4133 255.4716,-258.0813 260.9599,-262.4262"/>
</g>
<!-- 3&#45;&gt;0 -->
<g id="edge3" class="edge">
<title>3&#45;&gt;0</title>
<path fill="none" stroke="#c0c0c0" stroke-width="2" d="M264.101,-215.6309C256.8276,-205.6728 248.6602,-192.8084 244,-180 227.7211,-135.2585 224.1952,-79.4689 223.6945,-46.4028"/>
<polygon fill="#c0c0c0" stroke="#c0c0c0" stroke-width="2" points="227.1926,-46.0857 223.6267,-36.1091 220.1928,-46.1319 227.1926,-46.0857"/>
</g>
<!-- 4 -->
<g id="node5" class="node">
<title>4</title>
<path fill="none" stroke="#afd856" stroke-width="2" d="M335.5,-180C335.5,-180 264.5,-180 264.5,-180 258.5,-180 252.5,-174 252.5,-168 252.5,-168 252.5,-156 252.5,-156 252.5,-150 258.5,-144 264.5,-144 264.5,-144 335.5,-144 335.5,-144 341.5,-144 347.5,-150 347.5,-156 347.5,-156 347.5,-168 347.5,-168 347.5,-174 341.5,-180 335.5,-180"/>
<text text-anchor="middle" x="300" y="-159" font-family="sans" font-size="10.00" fill="#000000">samtools_index</text>
</g>
<!-- 3&#45;&gt;4 -->
<g id="edge7" class="edge">
<title>3&#45;&gt;4</title>
<path fill="none" stroke="#c0c0c0" stroke-width="2" d="M284.2992,-215.8314C286.5698,-208.0463 289.2746,-198.7729 291.794,-190.1347"/>
<polygon fill="#c0c0c0" stroke="#c0c0c0" stroke-width="2" points="295.1894,-190.9933 294.6295,-180.4133 288.4694,-189.0332 295.1894,-190.9933"/>
</g>
<!-- 5 -->
<g id="node6" class="node">
<title>5</title>
<path fill="none" stroke="#d8ac56" stroke-width="2" d="M357.5,-108C357.5,-108 302.5,-108 302.5,-108 296.5,-108 290.5,-102 290.5,-96 290.5,-96 290.5,-84 290.5,-84 290.5,-78 296.5,-72 302.5,-72 302.5,-72 357.5,-72 357.5,-72 363.5,-72 369.5,-78 369.5,-84 369.5,-84 369.5,-96 369.5,-96 369.5,-102 363.5,-108 357.5,-108"/>
<text text-anchor="middle" x="330" y="-87" font-family="sans" font-size="10.00" fill="#000000">bcftools_call</text>
</g>
<!-- 3&#45;&gt;5 -->
<g id="edge8" class="edge">
<title>3&#45;&gt;5</title>
<path fill="none" stroke="#c0c0c0" stroke-width="2" d="M320.0213,-215.7895C334.4099,-207.1553 348.9739,-195.3184 357,-180 367.4923,-159.9747 358.7119,-135.2554 348.4505,-116.7928"/>
<polygon fill="#c0c0c0" stroke="#c0c0c0" stroke-width="2" points="351.3437,-114.8112 343.2085,-108.0237 345.3353,-118.4029 351.3437,-114.8112"/>
</g>
<!-- 4&#45;&gt;0 -->
<g id="edge4" class="edge">
<title>4&#45;&gt;0</title>
<path fill="none" stroke="#c0c0c0" stroke-width="2" d="M290.3745,-143.7623C277.2403,-118.8764 253.599,-74.0822 238.3642,-45.2165"/>
<polygon fill="#c0c0c0" stroke="#c0c0c0" stroke-width="2" points="241.3103,-43.2998 233.5473,-36.0896 235.1196,-46.5671 241.3103,-43.2998"/>
</g>
<!-- 4&#45;&gt;5 -->
<g id="edge9" class="edge">
<title>4&#45;&gt;5</title>
<path fill="none" stroke="#c0c0c0" stroke-width="2" d="M307.5703,-143.8314C310.8493,-135.9617 314.762,-126.5712 318.3945,-117.8533"/>
<polygon fill="#c0c0c0" stroke="#c0c0c0" stroke-width="2" points="321.7124,-118.9902 322.3278,-108.4133 315.2508,-116.2979 321.7124,-118.9902"/>
</g>
<!-- 5&#45;&gt;0 -->
<g id="edge5" class="edge">
<title>5&#45;&gt;0</title>
<path fill="none" stroke="#c0c0c0" stroke-width="2" d="M303.2517,-71.8314C289.9447,-62.7927 273.684,-51.7476 259.3625,-42.0198"/>
<polygon fill="#c0c0c0" stroke="#c0c0c0" stroke-width="2" points="260.9785,-38.8864 250.7397,-36.1628 257.0453,-44.677 260.9785,-38.8864"/>
</g>
</g>
</svg>
